<mxfile host="app.diagrams.net" modified="2023-10-15T11:42:33.953Z" agent="Mozilla/5.0 (Windows NT 10.0; Win64; x64) AppleWebKit/537.36 (KHTML, like Gecko) Chrome/117.0.0.0 Safari/537.36" etag="CTrAD_LhcAIP9zyu5J_b" version="22.0.4" type="device">
  <diagram name="Page-1" id="dcC59069Ga72Bv8PBFjT">
    <mxGraphModel dx="2074" dy="1160" grid="1" gridSize="10" guides="1" tooltips="1" connect="1" arrows="1" fold="1" page="1" pageScale="1" pageWidth="850" pageHeight="1100" math="0" shadow="0">
      <root>
        <mxCell id="0" />
        <mxCell id="1" parent="0" />
        <mxCell id="a_cL5LPK8CZzJPoiYrA7-6" value="VPC" style="points=[[0,0],[0.25,0],[0.5,0],[0.75,0],[1,0],[1,0.25],[1,0.5],[1,0.75],[1,1],[0.75,1],[0.5,1],[0.25,1],[0,1],[0,0.75],[0,0.5],[0,0.25]];outlineConnect=0;gradientColor=none;html=1;whiteSpace=wrap;fontSize=12;fontStyle=0;container=1;pointerEvents=0;collapsible=0;recursiveResize=0;shape=mxgraph.aws4.group;grIcon=mxgraph.aws4.group_vpc;strokeColor=#248814;fillColor=none;verticalAlign=top;align=left;spacingLeft=30;fontColor=#AAB7B8;dashed=0;" parent="1" vertex="1">
          <mxGeometry x="295" y="110" width="545" height="290" as="geometry" />
        </mxCell>
        <mxCell id="a_cL5LPK8CZzJPoiYrA7-2" value="CloudFront" style="sketch=0;points=[[0,0,0],[0.25,0,0],[0.5,0,0],[0.75,0,0],[1,0,0],[0,1,0],[0.25,1,0],[0.5,1,0],[0.75,1,0],[1,1,0],[0,0.25,0],[0,0.5,0],[0,0.75,0],[1,0.25,0],[1,0.5,0],[1,0.75,0]];outlineConnect=0;fontColor=#232F3E;fillColor=#8C4FFF;strokeColor=#ffffff;dashed=0;verticalLabelPosition=bottom;verticalAlign=top;align=center;html=1;fontSize=12;fontStyle=0;aspect=fixed;shape=mxgraph.aws4.resourceIcon;resIcon=mxgraph.aws4.cloudfront;" parent="a_cL5LPK8CZzJPoiYrA7-6" vertex="1">
          <mxGeometry x="35" y="150" width="78" height="78" as="geometry" />
        </mxCell>
        <mxCell id="a_cL5LPK8CZzJPoiYrA7-5" value="qrar-shorten-url-func&lt;br&gt;Lambda" style="sketch=0;points=[[0,0,0],[0.25,0,0],[0.5,0,0],[0.75,0,0],[1,0,0],[0,1,0],[0.25,1,0],[0.5,1,0],[0.75,1,0],[1,1,0],[0,0.25,0],[0,0.5,0],[0,0.75,0],[1,0.25,0],[1,0.5,0],[1,0.75,0]];outlineConnect=0;fontColor=#232F3E;fillColor=#ED7100;strokeColor=#ffffff;dashed=0;verticalLabelPosition=bottom;verticalAlign=top;align=center;html=1;fontSize=12;fontStyle=0;aspect=fixed;shape=mxgraph.aws4.resourceIcon;resIcon=mxgraph.aws4.lambda;" parent="a_cL5LPK8CZzJPoiYrA7-6" vertex="1">
          <mxGeometry x="425" y="20" width="78" height="78" as="geometry" />
        </mxCell>
        <mxCell id="a_cL5LPK8CZzJPoiYrA7-3" value="qrar-frontend-bucket&lt;br&gt;S3 Bucket" style="sketch=0;points=[[0,0,0],[0.25,0,0],[0.5,0,0],[0.75,0,0],[1,0,0],[0,1,0],[0.25,1,0],[0.5,1,0],[0.75,1,0],[1,1,0],[0,0.25,0],[0,0.5,0],[0,0.75,0],[1,0.25,0],[1,0.5,0],[1,0.75,0]];outlineConnect=0;fontColor=#232F3E;fillColor=#7AA116;strokeColor=#ffffff;dashed=0;verticalLabelPosition=bottom;verticalAlign=top;align=center;html=1;fontSize=12;fontStyle=0;aspect=fixed;shape=mxgraph.aws4.resourceIcon;resIcon=mxgraph.aws4.s3;" parent="a_cL5LPK8CZzJPoiYrA7-6" vertex="1">
          <mxGeometry x="425" y="170" width="78" height="78" as="geometry" />
        </mxCell>
        <mxCell id="a_cL5LPK8CZzJPoiYrA7-10" style="edgeStyle=orthogonalEdgeStyle;rounded=0;orthogonalLoop=1;jettySize=auto;html=1;entryX=0;entryY=0.5;entryDx=0;entryDy=0;entryPerimeter=0;exitX=1;exitY=0.75;exitDx=0;exitDy=0;exitPerimeter=0;" parent="a_cL5LPK8CZzJPoiYrA7-6" source="a_cL5LPK8CZzJPoiYrA7-2" target="a_cL5LPK8CZzJPoiYrA7-3" edge="1">
          <mxGeometry relative="1" as="geometry" />
        </mxCell>
        <mxCell id="a_cL5LPK8CZzJPoiYrA7-27" value="/*" style="edgeLabel;html=1;align=center;verticalAlign=middle;resizable=0;points=[];" parent="a_cL5LPK8CZzJPoiYrA7-10" vertex="1" connectable="0">
          <mxGeometry x="-0.0498" relative="1" as="geometry">
            <mxPoint as="offset" />
          </mxGeometry>
        </mxCell>
        <mxCell id="owJEUBSOz4bVIqntEQ-a-1" value="S3 Origin&lt;br&gt;/*" style="edgeLabel;html=1;align=center;verticalAlign=middle;resizable=0;points=[];" vertex="1" connectable="0" parent="a_cL5LPK8CZzJPoiYrA7-10">
          <mxGeometry x="-0.0545" y="1" relative="1" as="geometry">
            <mxPoint as="offset" />
          </mxGeometry>
        </mxCell>
        <mxCell id="a_cL5LPK8CZzJPoiYrA7-12" style="edgeStyle=orthogonalEdgeStyle;rounded=0;orthogonalLoop=1;jettySize=auto;html=1;exitX=1;exitY=0.25;exitDx=0;exitDy=0;exitPerimeter=0;" parent="a_cL5LPK8CZzJPoiYrA7-6" source="a_cL5LPK8CZzJPoiYrA7-2" target="a_cL5LPK8CZzJPoiYrA7-5" edge="1">
          <mxGeometry relative="1" as="geometry">
            <mxPoint x="273" y="69" as="sourcePoint" />
            <Array as="points">
              <mxPoint x="255" y="170" />
              <mxPoint x="255" y="69" />
            </Array>
          </mxGeometry>
        </mxCell>
        <mxCell id="a_cL5LPK8CZzJPoiYrA7-25" value="CustomOrigin&lt;br&gt;/api/shorten-url" style="edgeLabel;html=1;align=center;verticalAlign=middle;resizable=0;points=[];" parent="a_cL5LPK8CZzJPoiYrA7-12" vertex="1" connectable="0">
          <mxGeometry x="-0.0345" relative="1" as="geometry">
            <mxPoint as="offset" />
          </mxGeometry>
        </mxCell>
        <mxCell id="a_cL5LPK8CZzJPoiYrA7-21" value="Client" style="sketch=0;outlineConnect=0;fontColor=#232F3E;gradientColor=none;fillColor=#232F3D;strokeColor=none;dashed=0;verticalLabelPosition=bottom;verticalAlign=top;align=center;html=1;fontSize=12;fontStyle=0;aspect=fixed;pointerEvents=1;shape=mxgraph.aws4.client;" parent="1" vertex="1">
          <mxGeometry x="150" y="261" width="78" height="76" as="geometry" />
        </mxCell>
        <mxCell id="a_cL5LPK8CZzJPoiYrA7-22" style="edgeStyle=orthogonalEdgeStyle;rounded=0;orthogonalLoop=1;jettySize=auto;html=1;entryX=0;entryY=0.5;entryDx=0;entryDy=0;entryPerimeter=0;" parent="1" source="a_cL5LPK8CZzJPoiYrA7-21" target="a_cL5LPK8CZzJPoiYrA7-2" edge="1">
          <mxGeometry relative="1" as="geometry" />
        </mxCell>
      </root>
    </mxGraphModel>
  </diagram>
</mxfile>
